<svg width="800" height="800" viewBox="0 0 800 800" fill="none" xmlns="http://www.w3.org/2000/svg">
<rect width="800" height="800" fill="#1E1E1E"/>
<path d="M0 474C0 457.431 13.4315 444 30 444H120C136.569 444 150 457.431 150 474V564C150 580.569 136.569 594 120 594H30C13.4315 594 0 580.569 0 564V474Z" fill="white"/>
<path d="M74.8977 559.699C74.5215 559.699 74.1702 559.585 73.8439 559.384L70.507 557.118C70.0051 556.802 70.2561 556.688 70.4067 556.631C71.0841 556.372 71.2095 556.315 71.912 555.856C71.9874 555.799 72.0879 555.827 72.163 555.885L74.7223 557.634C74.8226 557.692 74.948 557.692 75.0232 557.634L85.0343 551.009C85.1346 550.951 85.185 550.837 85.185 550.693V537.471C85.185 537.327 85.1346 537.213 85.0343 537.155L75.0232 530.559C74.9229 530.501 74.7974 530.501 74.7223 530.559L64.7111 537.155C64.6108 537.213 64.5605 537.356 64.5605 537.471V550.693C64.5605 550.808 64.6108 550.951 64.7111 551.009L67.446 552.816C68.9264 553.676 69.8547 552.672 69.8547 551.668V538.618C69.8547 538.446 69.9801 538.274 70.1558 538.274H71.4353C71.586 538.274 71.7364 538.417 71.7364 538.618V551.668C71.7364 553.934 70.6575 555.254 68.7757 555.254C68.1987 555.254 67.7471 555.254 66.4674 554.536L63.833 552.816C63.1806 552.386 62.7792 551.582 62.7792 550.722V537.5C62.7792 536.639 63.1806 535.836 63.833 535.406L73.8439 528.78C74.4713 528.379 75.3245 528.379 75.9517 528.78L85.9626 535.406C86.6149 535.836 87.0166 536.639 87.0166 537.5V550.722C87.0166 551.582 86.6149 552.386 85.9626 552.816L75.9517 559.441C75.6254 559.613 75.2489 559.699 74.8977 559.699ZM77.9838 550.607C73.5932 550.607 72.6899 548.313 72.6899 546.362C72.6899 546.19 72.8153 546.018 72.991 546.018H74.2957C74.4461 546.018 74.5716 546.133 74.5716 546.305C74.7724 547.825 75.3494 548.571 78.009 548.571C80.1165 548.571 81.0201 548.026 81.0201 546.735C81.0201 545.989 80.7689 545.445 77.4821 545.072C74.7472 544.756 73.0411 544.068 73.0411 541.573C73.0411 539.249 74.7475 537.872 77.6076 537.872C80.819 537.872 82.3999 539.135 82.6007 541.888C82.6007 541.974 82.5755 542.06 82.5254 542.146C82.475 542.203 82.3999 542.261 82.3246 542.261H81.0199C80.8944 542.261 80.7689 542.146 80.7439 542.003C80.4428 540.425 79.665 539.909 77.6076 539.909C75.2993 539.909 75.0232 540.827 75.0232 541.515C75.0232 542.347 75.3495 542.605 78.4606 543.064C81.5467 543.523 83.0021 544.183 83.0021 546.649C82.9769 549.173 81.1705 550.607 77.9838 550.607Z" fill="#539E43"/>
<path d="M43.8359 507.986C43.8359 507.47 43.585 506.982 43.1836 506.724L32.5452 499.726C32.3694 499.611 32.1688 499.553 31.9682 499.525H31.8677C31.6671 499.525 31.4663 499.611 31.2907 499.726L20.6524 506.724C20.2507 506.982 20 507.47 20 507.986L20.0252 526.801C20.0252 527.059 20.1507 527.317 20.3513 527.432C20.5521 527.576 20.8028 527.576 20.9786 527.432L27.3014 523.302C27.7028 523.044 27.9538 522.556 27.9538 522.04V513.235C27.9538 512.719 28.2045 512.231 28.6061 511.973L31.2907 510.194C31.4915 510.051 31.7173 509.993 31.943 509.993C32.1688 509.993 32.3946 510.051 32.5704 510.194L35.255 511.973C35.6566 512.231 35.9073 512.718 35.9073 513.235V522.04C35.9073 522.556 36.1583 523.044 36.5597 523.302L42.8824 527.432C43.0833 527.576 43.334 527.576 43.5348 527.432C43.7356 527.317 43.8611 527.059 43.8611 526.801L43.8359 507.986ZM94.9701 482.086C94.7695 481.971 94.5186 481.971 94.3427 482.086C94.1421 482.23 94.0166 482.459 94.0166 482.717V501.36C94.0166 501.532 93.9415 501.704 93.7909 501.819C93.6404 501.905 93.4898 501.905 93.3393 501.819L90.6797 500.07C90.4848 499.943 90.2642 499.876 90.0399 499.876C89.8155 499.876 89.595 499.943 89.4 500.07L78.7617 507.097C78.3603 507.355 78.1093 507.843 78.1093 508.359V522.384C78.1093 522.9 78.3603 523.388 78.7617 523.646L89.4 530.673C89.595 530.8 89.8155 530.867 90.0399 530.867C90.2642 530.867 90.4848 530.8 90.6797 530.673L101.318 523.646C101.719 523.388 101.97 522.901 101.97 522.384V487.421C101.97 486.876 101.719 486.389 101.318 486.13L94.9701 482.086ZM93.9917 517.766C93.9917 517.91 93.9415 518.025 93.841 518.082L90.203 520.491C90.1522 520.519 90.0964 520.534 90.0399 520.534C89.9833 520.534 89.9275 520.519 89.8767 520.491L86.2387 518.082C86.1382 518.025 86.0881 517.881 86.0881 517.766V512.948C86.0881 512.804 86.1382 512.69 86.2387 512.632L89.8767 510.223C89.9275 510.195 89.9833 510.18 90.0399 510.18C90.0964 510.18 90.1522 510.195 90.203 510.223L93.841 512.632C93.9415 512.69 93.9917 512.833 93.9917 512.948V517.766ZM130.373 512.833C130.774 512.575 131 512.087 131 511.571V508.158C131 507.642 130.749 507.154 130.373 506.896L119.81 499.898C119.615 499.771 119.394 499.704 119.17 499.704C118.946 499.704 118.725 499.771 118.53 499.898L107.892 506.925C107.49 507.183 107.239 507.67 107.239 508.187V522.212C107.239 522.728 107.49 523.216 107.892 523.474L118.455 530.358C118.856 530.616 119.333 530.616 119.709 530.358L126.107 526.285C126.308 526.17 126.433 525.912 126.433 525.654C126.433 525.396 126.308 525.138 126.107 525.023L115.419 517.996C115.218 517.853 115.093 517.623 115.093 517.365V512.977C115.093 512.719 115.218 512.461 115.419 512.346L118.756 510.166C118.854 510.096 118.967 510.058 119.082 510.058C119.197 510.058 119.311 510.096 119.408 510.166L122.745 512.346C122.946 512.489 123.071 512.719 123.071 512.977V516.419C123.071 516.677 123.197 516.935 123.397 517.05C123.598 517.193 123.849 517.193 124.05 517.05L130.373 512.833Z" fill="#333333"/>
<path d="M119.007 512.174C119.044 512.146 119.088 512.131 119.132 512.131C119.177 512.131 119.22 512.146 119.258 512.174L121.29 513.522C121.365 513.579 121.415 513.665 121.415 513.78V516.476C121.415 516.59 121.365 516.677 121.29 516.734L119.258 518.082C119.22 518.11 119.177 518.125 119.132 518.125C119.088 518.125 119.044 518.11 119.007 518.082L116.974 516.734C116.899 516.677 116.849 516.59 116.849 516.476V513.78C116.849 513.665 116.899 513.579 116.974 513.522L119.007 512.174Z" fill="#539E43"/>
<path d="M61.1799 502.097C60.985 501.97 60.7645 501.903 60.5402 501.903C60.3158 501.903 60.0954 501.97 59.9004 502.097L49.3374 509.066C48.9358 509.324 48.71 509.812 48.71 510.328V524.296C48.71 524.812 48.961 525.3 49.3374 525.558L59.9004 532.528C60.0954 532.655 60.3158 532.721 60.5402 532.721C60.7645 532.721 60.985 532.655 61.1799 532.528L71.7431 525.558C72.1445 525.3 72.3705 524.812 72.3705 524.296V510.328C72.3705 509.812 72.1194 509.324 71.7431 509.066L61.1799 502.097Z" fill="url(#paint0_linear_0_1)"/>
<path d="M71.7681 509.066L61.155 502.097C61.0507 502.036 60.9414 501.988 60.8287 501.953L48.9358 525.243C49.0343 525.38 49.1533 525.497 49.2873 525.587L59.9004 532.557C60.2015 532.758 60.5528 532.815 60.8788 532.7L72.0443 509.353C71.9689 509.239 71.8684 509.152 71.7681 509.066Z" fill="url(#paint1_linear_0_1)"/>
<path fill-rule="evenodd" clip-rule="evenodd" d="M59.5491 499.544L59.3987 499.63H59.5993L59.5491 499.544Z" fill="url(#paint2_linear_0_1)"/>
<path fill-rule="evenodd" clip-rule="evenodd" d="M71.7933 525.558C72.0944 525.357 72.3202 525.013 72.4207 524.64L60.7783 501.924C60.4772 501.867 60.1509 501.896 59.8752 502.096L49.3372 509.038L60.703 532.729C60.8683 532.698 61.0288 532.64 61.1797 532.557L71.7933 525.558Z" fill="url(#paint3_linear_0_1)"/>
<path fill-rule="evenodd" clip-rule="evenodd" d="M72.773 525.33L72.6966 525.185V525.387L72.773 525.33Z" fill="url(#paint4_linear_0_1)"/>
<path fill-rule="evenodd" clip-rule="evenodd" d="M71.7933 525.558L61.2051 532.528C61.0556 532.615 60.8945 532.673 60.7284 532.7L60.9292 533.13L72.6714 525.358V525.185L72.3701 524.612C72.3199 525.013 72.0944 525.357 71.7933 525.558Z" fill="url(#paint5_linear_0_1)"/>
<path fill-rule="evenodd" clip-rule="evenodd" d="M71.7933 525.558L61.2051 532.528C61.0556 532.615 60.8945 532.673 60.7284 532.7L60.9292 533.13L72.6714 525.358V525.185L72.3701 524.612C72.3199 525.013 72.0944 525.357 71.7933 525.558Z" fill="url(#paint6_linear_0_1)"/>
<defs>
<linearGradient id="paint0_linear_0_1" x1="10228.2" y1="3067.05" x2="4173.45" y2="13907.3" gradientUnits="userSpaceOnUse">
<stop stop-color="#41873F"/>
<stop offset="0.3288" stop-color="#418B3D"/>
<stop offset="0.6352" stop-color="#419637"/>
<stop offset="0.9319" stop-color="#3FA92D"/>
<stop offset="1" stop-color="#3FAE2A"/>
</linearGradient>
<linearGradient id="paint1_linear_0_1" x1="6491.55" y1="8719.35" x2="23886.8" y2="-2301.9" gradientUnits="userSpaceOnUse">
<stop offset="0.1376" stop-color="#41873F"/>
<stop offset="0.4032" stop-color="#54A044"/>
<stop offset="0.7136" stop-color="#66B848"/>
<stop offset="0.9081" stop-color="#6CC04A"/>
</linearGradient>
<linearGradient id="paint2_linear_0_1" x1="-662066" y1="2458.48" x2="799190" y2="2458.48" gradientUnits="userSpaceOnUse">
<stop offset="0.09192" stop-color="#6CC04A"/>
<stop offset="0.2864" stop-color="#66B848"/>
<stop offset="0.5968" stop-color="#54A044"/>
<stop offset="0.8624" stop-color="#41873F"/>
</linearGradient>
<linearGradient id="paint3_linear_0_1" x1="-658.35" y1="7943.55" x2="15224.9" y2="7943.55" gradientUnits="userSpaceOnUse">
<stop offset="0.09192" stop-color="#6CC04A"/>
<stop offset="0.2864" stop-color="#66B848"/>
<stop offset="0.5968" stop-color="#54A044"/>
<stop offset="0.8624" stop-color="#41873F"/>
</linearGradient>
<linearGradient id="paint4_linear_0_1" x1="-1.45707e+06" y1="5875.49" x2="4189.48" y2="5875.49" gradientUnits="userSpaceOnUse">
<stop offset="0.09192" stop-color="#6CC04A"/>
<stop offset="0.2864" stop-color="#66B848"/>
<stop offset="0.5968" stop-color="#54A044"/>
<stop offset="0.8624" stop-color="#41873F"/>
</linearGradient>
<linearGradient id="paint5_linear_0_1" x1="-15579.2" y1="7985.25" x2="15119.5" y2="7985.25" gradientUnits="userSpaceOnUse">
<stop offset="0.09192" stop-color="#6CC04A"/>
<stop offset="0.2864" stop-color="#66B848"/>
<stop offset="0.5968" stop-color="#54A044"/>
<stop offset="0.8624" stop-color="#41873F"/>
</linearGradient>
<linearGradient id="paint6_linear_0_1" x1="1620.64" y1="-1273.39" x2="820.09" y2="2396.21" gradientUnits="userSpaceOnUse">
<stop stop-color="#41873F"/>
<stop offset="0.3288" stop-color="#418B3D"/>
<stop offset="0.6352" stop-color="#419637"/>
<stop offset="0.9319" stop-color="#3FA92D"/>
<stop offset="1" stop-color="#3FAE2A"/>
</linearGradient>
</defs>
</svg>
